:FULLY-SPECIFIED
:FORCE-ALL-JOINTS-BE-3DOF
:DEGREES
544
root 8.25341 13.9525 -3.52183 179.534 46.2535 177.376
lfemur -33.9708 -6.24075 -15.6263
ltibia 89.2998 -0 0
lfoot -38.8825 -12.1892 0.123237
ltoes -4.1178 0 0
rfemur -48.9749 -7.17564 -3.71771
rtibia 64.7114 -0 0
rfoot -9.55123 0.751623 0.10698
rtoes -39.1516 0 0
lowerback 13.1956 0.711709 1.87485
upperback 6.97286 2.12912 6.98765
thorax -0.268585 1.35689 6.0074
lowerneck -2.09874 -15.787 -5.97647
upperneck 8.64538 -21.4285 8.63105
head 4.51302 -10.3726 2.29386
lclavicle -4.85035e-014 1.11319e-014 0
lhumerus -45.669 -12.7251 104.355
lradius 55.8014 -0 0
lwrist 30.8966 0 0
lhand -24.1045 -2.96295 -0.0389175
lfingers 7.12502 -0 0
lthumb 2.37746 27.01 -0.0319824
rclavicle -4.85035e-014 1.11319e-014 0
rhumerus 6.4138 18.7843 -88.6019
rradius 135.215 -0 0
rwrist -45.6731 0 0
rhand -28.82 -22.8191 -0.0208456
rfingers 7.12502 -0 0
rthumb -2.17576 -52.8042 -0.0287611
545
root 8.29207 13.9287 -3.49426 179.421 46.2023 177.271
lfemur -33.9305 -6.1784 -15.3761
ltibia 89.3685 -0 0
lfoot -39.1761 -12.7519 0.0738245
ltoes -3.89005 0 0
rfemur -49.0514 -7.55585 -3.43478
rtibia 65.2717 -0 0
rfoot -10.1919 0.48572 0.0516108
rtoes -39.1166 0 0
lowerback 13.1433 0.677269 1.81019
upperback 6.99553 2.07207 6.92937
thorax -0.209243 1.32726 5.99159
lowerneck -1.98296 -15.7342 -5.90492
upperneck 8.46101 -21.3613 8.71991
head 4.43617 -10.3432 2.33409
lclavicle -4.85035e-014 1.11319e-014 0
lhumerus -45.8066 -12.1276 103.868
lradius 55.5726 -0 0
lwrist 31.2243 0 0
lhand -24.3021 -2.80568 -0.0222155
lfingers 7.12502 -0 0
lthumb 2.18604 27.1636 -0.0190585
rclavicle -4.85035e-014 1.11319e-014 0
rhumerus 6.10163 19.2121 -89.0042
rradius 134.989 -0 0
rwrist -45.2663 0 0
rhand -28.9735 -22.8266 -0.00840973
rfingers 7.12502 -0 0
rthumb -2.32511 -52.7994 -0.0121262
546
root 8.32205 13.9189 -3.47013 179.357 46.2484 177.189
lfemur -33.8243 -6.06244 -15.1838
ltibia 89.2534 -0 0
lfoot -39.4139 -13.1447 0.0317776
ltoes -3.71562 0 0
rfemur -49.0949 -7.87615 -3.14458
rtibia 65.5529 -0 0
rfoot -10.6019 0.318459 0.0144917
rtoes -39.0955 0 0
lowerback 13.0737 0.64152 1.73929
upperback 6.99594 2.0095 6.86834
thorax -0.163218 1.2936 5.97669
lowerneck -1.89303 -15.6844 -5.8393
upperneck 8.31198 -21.2969 8.78011
head 4.37187 -10.3148 2.36309
lclavicle -4.85035e-014 1.11319e-014 0
lhumerus -45.9219 -11.6116 103.426
lradius 55.377 -0 0
lwrist 31.4584 0 0
lhand -24.4826 -2.69742 -0.00894069
lfingers 7.12502 -0 0
lthumb 2.01135 27.2712 -0.0081968
rclavicle -4.85035e-014 1.11319e-014 0
rhumerus 5.98275 19.5452 -89.2698
rradius 134.82 -0 0
rwrist -44.9658 0 0
rhand -29.12 -22.8348 -0.00109792
rfingers 7.12502 -0 0
rthumb -2.46732 -52.8002 -0.00207016
547
root 8.3426 13.9245 -3.44966 -180.653 46.3973 -182.868
lfemur -33.6469 -5.88619 -15.0556
ltibia 88.9407 0 0
lfoot -39.5906 -13.3481 0
ltoes -3.60323 0 0
rfemur -49.0997 -8.13052 -2.84987
rtibia 65.5231 0 0
rfoot -10.7566 0.259778 0
rtoes -39.0929 0 0
lowerback 12.986 0.604552 1.66225
upperback 6.9725 1.94136 6.80527
thorax -0.131767 1.25582 5.96331
lowerneck -1.83125 -15.6388 -5.78109
upperneck 8.20244 -21.237 8.80926
head 4.32172 -10.2881 2.37983
lclavicle 9.85972e-014 6.36111e-015 0
lhumerus -46.01 -11.1851 103.032
lradius 55.2192 0 0
lwrist 31.5909 0 0
lhand -24.6475 -2.6444 0
lfingers 7.12502 0 0
lthumb 1.85197 27.3273 0
rclavicle 9.85972e-014 6.36111e-015 0
rhumerus 6.08594 19.7702 -89.381
rradius 134.72 0 0
rwrist -44.7914 0 0
rhand -29.263 -22.8451 0
rfingers 7.12502 0 0
rthumb -2.6057 -772.809 0
548
root 8.35382 13.9475 -3.43358 179.394 46.6687 177.097
lfemur -33.385 -5.65157 -14.9875
ltibia 88.3886 -0 0
lfoot -39.7088 -13.379 -0.0227642
ltoes -3.54129 0 0
rfemur -49.0751 -8.31453 -2.53314
rtibia 65.151 -0 0
rfoot -10.6442 0.317086 0.0102625
rtoes -39.1099 0 0
lowerback 12.874 0.563725 1.57598
upperback 6.91969 1.86286 6.73458
thorax -0.116875 1.21121 5.948
lowerneck -1.79891 -15.5921 -5.72525
upperneck 8.12593 -21.1741 8.80247
head 4.28252 -10.2598 2.38326
lclavicle 9.85972e-014 6.36111e-015 0
lhumerus -46.0905 -10.8261 102.688
lradius 55.0934 -0 0
lwrist 31.603 0 0
lhand -24.7818 -2.64606 0.00543541
lfingers 7.12502 -0 0
lthumb 1.72237 27.3302 0.00563107
rclavicle 9.85972e-014 6.36111e-015 0
rhumerus 6.39518 19.92 -89.3314
rradius 134.66 -0 0
rwrist -44.6916 0 0
rhand -29.3801 -22.8519 -0.00211709
rfingers 7.12502 -0 0
rthumb -2.71876 -52.8175 -0.00213984
549
root 8.35669 13.9881 -3.42219 179.496 47.0723 177.08
lfemur -33.0349 -5.36815 -14.9684
ltibia 87.5807 -0 0
lfoot -39.7769 -13.2743 -0.0394623
ltoes -3.51004 0 0
rfemur -49.0355 -8.43215 -2.17742
rtibia 64.4496 -0 0
rfoot -10.2845 0.484142 0.042878
rtoes -39.1418 0 0
lowerback 12.7337 0.516716 1.47795
upperback 6.83504 1.77017 6.65102
thorax -0.118615 1.15774 5.92728
lowerneck -1.79423 -15.5386 -5.66605
upperneck 8.07218 -21.1003 8.75881
head 4.2498 -10.2264 2.37381
lclavicle 9.85972e-014 6.36111e-015 0
lhumerus -46.1833 -10.5072 102.389
lradius 54.9897 -0 0
lwrist 31.4892 0 0
lhand -24.8714 -2.69441 0.00882047
lfingers 7.12502 -0 0
lthumb 1.63585 27.2854 0.00921505
rclavicle 9.85972e-014 6.36111e-015 0
rhumerus 6.86569 20.0381 -89.1341
rradius 134.604 -0 0
rwrist -44.6008 0 0
rhand -29.449 -22.849 -0.0037168
rfingers 7.12502 -0 0
rthumb -2.78533 -52.816 -0.00376695
550
root 8.35177 14.0448 -3.41509 179.648 47.5979 177.079
lfemur -32.6053 -5.04046 -14.9931
ltibia 86.5407 -0 0
lfoot -39.7985 -13.0447 -0.0502822
ltoes -3.50596 0 0
rfemur -48.9817 -8.48998 -1.78621
rtibia 63.4535 -0 0
rfoot -9.70054 0.750739 0.0936889
rtoes -39.1846 0 0
lowerback 12.5678 0.464089 1.36908
upperback 6.72157 1.66464 6.55585
thorax -0.13537 1.09628 5.90172
lowerneck -1.81495 -15.4789 -5.60391
upperneck 8.03963 -21.0166 8.68179
head 4.22322 -10.1883 2.35265
lclavicle 9.85972e-014 6.36111e-015 0
lhumerus -46.2843 -10.2281 102.128
lradius 54.9061 -0 0
lwrist 31.2614 0 0
lhand -24.9198 -2.78459 0.010285
lfingers 7.12502 -0 0
lthumb 1.5892 27.1978 0.0108764
rclavicle 9.85972e-014 6.36111e-015 0
rhumerus 7.48214 20.1245 -88.8021
rradius 134.552 -0 0
rwrist -44.5187 0 0
rhand -29.4737 -22.8368 -0.00481385
rfingers 7.12502 -0 0
rthumb -2.8092 -52.8053 -0.00489477
551
root 8.33963 14.1158 -3.41186 179.847 48.2352 177.097
lfemur -32.1049 -4.6729 -15.0562
ltibia 85.2923 -0 0
lfoot -39.7774 -12.7011 -0.0557118
ltoes -3.52554 0 0
rfemur -48.9147 -8.49462 -1.36299
rtibia 62.1976 -0 0
rfoot -8.91537 1.1068 0.157711
rtoes -39.2343 0 0
lowerback 12.3787 0.406403 1.25031
upperback 6.58228 1.54761 6.45031
thorax -0.165527 1.02771 5.87189
lowerneck -1.85881 -15.4137 -5.53927
upperneck 8.02672 -20.9242 8.57499
head 4.20244 -10.1461 2.32096
lclavicle 9.85972e-014 6.36111e-015 0
lhumerus -46.3896 -9.98857 101.902
lradius 54.8407 -0 0
lwrist 30.9318 0 0
lhand -24.9302 -2.91177 0.0100532
lfingers 7.12502 -0 0
lthumb 1.57921 27.0722 0.0108335
rclavicle 9.85972e-014 6.36111e-015 0
rhumerus 8.22884 20.1787 -88.349
rradius 134.504 -0 0
rwrist -44.4446 0 0
rhand -29.4581 -22.816 -0.00544423
rfingers 7.12502 -0 0
rthumb -2.79414 -52.7856 -0.00555773
552
root 8.32084 14.1995 -3.4121 -179.91 48.9741 177.133
lfemur -31.5424 -4.26983 -15.1525
ltibia 83.8593 -0 0
lfoot -39.7172 -12.254 -0.0564593
ltoes -3.56529 0 0
rfemur -48.8355 -8.45265 -0.911207
rtibia 60.7168 -0 0
rfoot -7.95203 1.54225 0.229512
rtoes -39.2867 0 0
lowerback 12.169 0.344223 1.12254
upperback 6.42018 1.42044 6.33567
thorax -0.207472 0.952897 5.83837
lowerneck -1.92354 -15.3436 -5.47254
upperneck 8.03187 -20.8241 8.44196
head 4.18712 -10.1002 2.2799
lclavicle 9.85972e-014 6.36111e-015 0
lhumerus -46.4954 -9.78818 101.705
lradius 54.7918 -0 0
lwrist 30.5123 0 0
lhand -24.9059 -3.07108 0.00841547
lfingers 7.12502 -0 0
lthumb 1.60269 26.9136 0.00937054
rclavicle 9.85972e-014 6.36111e-015 0
rhumerus 9.08975 20.1998 -87.7884
rradius 134.46 -0 0
rwrist -44.3781 0 0
rhand -29.4062 -22.7869 -0.00566018
rfingers 7.12502 -0 0
rthumb -2.74396 -52.7577 -0.00580636
553
root 8.29595 14.2943 -3.41541 -179.626 49.8044 177.189
lfemur -30.9267 -3.8356 -15.2769
ltibia 82.2653 -0 0
lfoot -39.6214 -11.7141 -0.0533808
ltoes -3.62168 0 0
rfemur -48.745 -8.37069 -0.434305
rtibia 59.0456 -0 0
rfoot -6.83358 2.04692 0.303551
rtoes -39.3379 0 0
lowerback 11.9411 0.278121 0.9867
upperback 6.23826 1.28447 6.21315
thorax -0.25959 0.872725 5.80174
lowerneck -2.00689 -15.2692 -5.40415
upperneck 8.05352 -20.7172 8.28624
head 4.17692 -10.051 2.23063
lclavicle 9.85972e-014 6.36111e-015 0
lhumerus -46.5978 -9.62665 101.535
lradius 54.7573 -0 0
lwrist 30.0149 0 0
lhand -24.8503 -3.25769 0.00570313
lfingers 7.12502 -0 0
lthumb 1.65643 26.727 0.00681275
rclavicle 9.85972e-014 6.36111e-015 0
rhumerus 10.0486 20.1871 -87.1345
rradius 134.419 -0 0
rwrist -44.3187 0 0
rhand -29.3218 -22.7502 -0.00552545
rfingers 7.12502 -0 0
rthumb -2.66243 -52.7221 -0.0057027
554
root 8.26555 14.3986 -3.42138 -179.304 50.7157 177.266
lfemur -30.2664 -3.3746 -15.4244
ltibia 80.5341 -0 0
lfoot -39.4936 -11.0922 -0.0474145
ltoes -3.69121 0 0
rfemur -48.6443 -8.2553 0.0642972
rtibia 57.2191 -0 0
rfoot -5.58318 2.61048 0.374484
rtoes -39.3837 0 0
lowerback 11.6975 0.208678 0.843694
upperback 6.03951 1.14107 6.08399
thorax -0.320272 0.788067 5.76255
lowerneck -2.1066 -15.1911 -5.33451
upperneck 8.09011 -20.6047 8.11141
head 4.1715 -9.9991 2.17434
lclavicle 9.85972e-014 6.36111e-015 0
lhumerus -46.6933 -9.50365 101.386
lradius 54.7355 -0 0
lwrist 29.4516 0 0
lhand -24.7666 -3.46676 0.00226569
lfingers 7.12502 -0 0
lthumb 1.73722 26.5172 0.00350425
rclavicle 9.85972e-014 6.36111e-015 0
rhumerus 11.0888 20.14 -86.4015
rradius 134.381 -0 0
rwrist -44.2659 0 0
rhand -29.2089 -22.7064 -0.00511108
rfingers 7.12502 -0 0
rthumb -2.55336 -52.6793 -0.0053161
555
root 8.23018 14.5107 -3.42961 -178.946 51.6979 177.366
lfemur -29.57 -2.89131 -15.5903
ltibia 78.6894 -0 0
lfoot -39.3374 -10.3989 -0.0395219
ltoes -3.77036 0 0
rfemur -48.5345 -8.11303 0.581185
rtibia 55.2718 -0 0
rfoot -4.22408 3.22239 0.437426
rtoes -39.4201 0 0
lowerback 11.4409 0.13649 0.694424
upperback 5.82691 0.991617 5.94941
thorax -0.387908 0.699801 5.72138
lowerneck -2.22041 -15.1099 -5.26405
upperneck 8.1401 -20.4876 7.92099
head 4.17052 -9.94491 2.11219
lclavicle 9.85972e-014 6.36111e-015 0
lhumerus -46.7783 -9.41885 101.254
lradius 54.7244 -0 0
lwrist 28.8346 0 0
lhand -24.6583 -3.69343 -0.00154879
lfingers 7.12502 -0 0
lthumb 1.84186 26.2892 -0.000211591
rclavicle 9.85972e-014 6.36111e-015 0
rhumerus 12.1939 20.0586 -85.6039
rradius 134.346 -0 0
rwrist -44.2191 0 0
rhand -29.0713 -22.6561 -0.00449142
rfingers 7.12502 -0 0
rthumb -2.42052 -52.6297 -0.00471938
556
root 8.19043 14.6291 -3.43969 -178.556 52.7406 177.49
lfemur -28.846 -2.39032 -15.7698
ltibia 76.7549 -0 0
lfoot -39.1564 -9.64483 -0.0306356
ltoes -3.85565 0 0
rfemur -48.4168 -7.95043 1.11294
rtibia 53.2387 -0 0
rfoot -2.77963 3.87187 0.488178
rtoes -39.4431 0 0
lowerback 11.1736 0.0621681 0.539779
upperback 5.60342 0.837516 5.81058
thorax -0.460892 0.608808 5.67879
lowerneck -2.34609 -15.0262 -5.19317
upperneck 8.20198 -20.3668 7.71853
head 4.17365 -9.8889 2.04535
lclavicle 9.85972e-014 6.36111e-015 0
lhumerus -46.8492 -9.37192 101.135
lradius 54.7222 -0 0
lwrist 28.1756 0 0
lhand -24.5285 -3.93287 -0.00541072
lfingers 7.12502 -0 0
lthumb 1.96715 26.0479 -0.00400876
rclavicle 9.85972e-014 6.36111e-015 0
rhumerus 13.3471 19.9435 -84.7561
rradius 134.314 -0 0
rwrist -44.1779 0 0
rhand -28.9131 -22.5996 -0.00374055
rfingers 7.12502 -0 0
rthumb -2.2677 -52.5741 -0.00398527
